<svg width="23" height="13" viewBox="0 0 23 13" fill="none" xmlns="http://www.w3.org/2000/svg">
<path d="M6.73926 12.631C5.07259 12.631 3.65592 12.0476 2.48926 10.881C1.32259 9.71431 0.739258 8.29765 0.739258 6.63098C0.739258 4.96431 1.32259 3.54765 2.48926 2.38098C3.65592 1.21431 5.07259 0.630981 6.73926 0.630981C7.83926 0.630981 8.84759 0.905981 9.76426 1.45598C10.6809 2.00598 11.4059 2.73098 11.9393 3.63098H22.7393V9.63098H20.7393V12.631H14.7393V9.63098H11.9393C11.4059 10.531 10.6809 11.256 9.76426 11.806C8.84759 12.356 7.83926 12.631 6.73926 12.631ZM6.73926 10.631C7.83926 10.631 8.72259 10.2935 9.38926 9.61848C10.0559 8.94348 10.4559 8.28098 10.5893 7.63098H16.7393V10.631H18.7393V7.63098H20.7393V5.63098H10.5893C10.4559 4.98098 10.0559 4.31848 9.38926 3.64348C8.72259 2.96848 7.83926 2.63098 6.73926 2.63098C5.63926 2.63098 4.69759 3.02265 3.91426 3.80598C3.13092 4.58931 2.73926 5.53098 2.73926 6.63098C2.73926 7.73098 3.13092 8.67265 3.91426 9.45598C4.69759 10.2393 5.63926 10.631 6.73926 10.631ZM6.73926 8.63098C7.28926 8.63098 7.76009 8.43515 8.15176 8.04348C8.54342 7.65181 8.73926 7.18098 8.73926 6.63098C8.73926 6.08098 8.54342 5.61015 8.15176 5.21848C7.76009 4.82681 7.28926 4.63098 6.73926 4.63098C6.18926 4.63098 5.71842 4.82681 5.32676 5.21848C4.93509 5.61015 4.73926 6.08098 4.73926 6.63098C4.73926 7.18098 4.93509 7.65181 5.32676 8.04348C5.71842 8.43515 6.18926 8.63098 6.73926 8.63098Z" fill="#FFFFFE"/>
</svg>
