<svg width="10" height="19" viewBox="0 0 10 19" fill="none" xmlns="http://www.w3.org/2000/svg">
<path d="M3.76445 18.631V16.481C2.88112 16.281 2.11862 15.8977 1.47695 15.331C0.835286 14.7643 0.364453 13.9643 0.0644531 12.931L1.91445 12.181C2.16445 12.981 2.53529 13.5893 3.02695 14.006C3.51862 14.4227 4.16445 14.631 4.96445 14.631C5.64779 14.631 6.22695 14.4768 6.70195 14.1685C7.17695 13.8602 7.41445 13.381 7.41445 12.731C7.41445 12.1477 7.23112 11.6852 6.86445 11.3435C6.49779 11.0018 5.64779 10.6143 4.31445 10.181C2.88112 9.73101 1.89779 9.19351 1.36445 8.56851C0.83112 7.94351 0.564453 7.18101 0.564453 6.28101C0.564453 5.19768 0.914453 4.35601 1.61445 3.75601C2.31445 3.15601 3.03112 2.81435 3.76445 2.73101V0.631012H5.76445V2.73101C6.59779 2.86435 7.28529 3.16851 7.82695 3.64351C8.36862 4.11851 8.76445 4.69768 9.01445 5.38101L7.16445 6.18101C6.96445 5.64768 6.68112 5.24768 6.31445 4.98101C5.94779 4.71435 5.44779 4.58101 4.81445 4.58101C4.08112 4.58101 3.52279 4.74351 3.13945 5.06851C2.75612 5.39351 2.56445 5.79768 2.56445 6.28101C2.56445 6.83101 2.81445 7.26435 3.31445 7.58101C3.81445 7.89768 4.68112 8.23101 5.91445 8.58101C7.06445 8.91435 7.93529 9.44351 8.52695 10.1685C9.11862 10.8935 9.41445 11.731 9.41445 12.681C9.41445 13.8643 9.06445 14.7643 8.36445 15.381C7.66445 15.9977 6.79779 16.381 5.76445 16.531V18.631H3.76445Z" fill="#FFFFFE"/>
</svg>
