<svg width="21" height="17" viewBox="0 0 21 17" fill="none" xmlns="http://www.w3.org/2000/svg">
<path d="M16.7393 9.63101V7.63101H20.7393V9.63101H16.7393ZM17.9393 16.631L14.7393 14.231L15.9393 12.631L19.1393 15.031L17.9393 16.631ZM15.9393 4.63101L14.7393 3.03101L17.9393 0.631012L19.1393 2.23101L15.9393 4.63101ZM3.73926 15.631V11.631H2.73926C2.18926 11.631 1.71842 11.4352 1.32676 11.0435C0.935091 10.6518 0.739258 10.181 0.739258 9.63101V7.63101C0.739258 7.08101 0.935091 6.61018 1.32676 6.21851C1.71842 5.82685 2.18926 5.63101 2.73926 5.63101H6.73926L11.7393 2.63101V14.631L6.73926 11.631H5.73926V15.631H3.73926ZM9.73926 11.081V6.18101L7.28926 7.63101H2.73926V9.63101H7.28926L9.73926 11.081ZM12.7393 11.981V5.28101C13.1893 5.68101 13.5518 6.16851 13.8268 6.74351C14.1018 7.31851 14.2393 7.94768 14.2393 8.63101C14.2393 9.31435 14.1018 9.94351 13.8268 10.5185C13.5518 11.0935 13.1893 11.581 12.7393 11.981Z" fill="#FFFFFE"/>
</svg>
