<svg width="21" height="21" viewBox="0 0 21 21" fill="none" xmlns="http://www.w3.org/2000/svg">
<path d="M3.73926 20.631C3.18926 20.631 2.71842 20.4352 2.32676 20.0435C1.93509 19.6518 1.73926 19.181 1.73926 18.631V7.35601C1.43926 7.17268 1.19759 6.93518 1.01426 6.64351C0.830924 6.35185 0.739258 6.01435 0.739258 5.63101V2.63101C0.739258 2.08101 0.935091 1.61018 1.32676 1.21851C1.71842 0.826845 2.18926 0.631012 2.73926 0.631012H18.7393C19.2893 0.631012 19.7601 0.826845 20.1518 1.21851C20.5434 1.61018 20.7393 2.08101 20.7393 2.63101V5.63101C20.7393 6.01435 20.6476 6.35185 20.4643 6.64351C20.2809 6.93518 20.0393 7.17268 19.7393 7.35601V18.631C19.7393 19.181 19.5434 19.6518 19.1518 20.0435C18.7601 20.4352 18.2893 20.631 17.7393 20.631H3.73926ZM3.73926 7.63101V18.631H17.7393V7.63101H3.73926ZM2.73926 5.63101H18.7393V2.63101H2.73926V5.63101ZM7.73926 12.631H13.7393V10.631H7.73926V12.631Z" fill="#FFFFFE"/>
</svg>
