<svg width="19" height="19" viewBox="0 0 19 19" fill="none" xmlns="http://www.w3.org/2000/svg">
<path d="M4.73926 18.631V16.631H8.73926V13.531C7.92259 13.3476 7.19342 13.0018 6.55176 12.4935C5.91009 11.9851 5.43926 11.3476 5.13926 10.581C3.88926 10.431 2.84342 9.88515 2.00176 8.94348C1.16009 8.00181 0.739258 6.89765 0.739258 5.63098V4.63098C0.739258 4.08098 0.935091 3.61015 1.32676 3.21848C1.71842 2.82681 2.18926 2.63098 2.73926 2.63098H4.73926V0.630981H14.7393V2.63098H16.7393C17.2893 2.63098 17.7601 2.82681 18.1518 3.21848C18.5434 3.61015 18.7393 4.08098 18.7393 4.63098V5.63098C18.7393 6.89765 18.3184 8.00181 17.4768 8.94348C16.6351 9.88515 15.5893 10.431 14.3393 10.581C14.0393 11.3476 13.5684 11.9851 12.9268 12.4935C12.2851 13.0018 11.5559 13.3476 10.7393 13.531V16.631H14.7393V18.631H4.73926ZM4.73926 8.43098V4.63098H2.73926V5.63098C2.73926 6.26431 2.92259 6.83515 3.28926 7.34348C3.65592 7.85181 4.13926 8.21431 4.73926 8.43098ZM9.73926 11.631C10.5726 11.631 11.2809 11.3393 11.8643 10.756C12.4476 10.1726 12.7393 9.46431 12.7393 8.63098V2.63098H6.73926V8.63098C6.73926 9.46431 7.03092 10.1726 7.61426 10.756C8.19759 11.3393 8.90592 11.631 9.73926 11.631ZM14.7393 8.43098C15.3393 8.21431 15.8226 7.85181 16.1893 7.34348C16.5559 6.83515 16.7393 6.26431 16.7393 5.63098V4.63098H14.7393V8.43098Z" fill="#FFFFFE"/>
</svg>
