<svg width="21" height="20" viewBox="0 0 21 20" fill="none" xmlns="http://www.w3.org/2000/svg">
<path d="M2.73926 15.631V17.631H18.7393V15.631H2.73926ZM2.73926 4.63101H4.93926C4.85592 4.48101 4.80176 4.32268 4.77676 4.15601C4.75176 3.98935 4.73926 3.81435 4.73926 3.63101C4.73926 2.79768 5.03092 2.08935 5.61426 1.50601C6.19759 0.922679 6.90592 0.631012 7.73926 0.631012C8.23926 0.631012 8.70176 0.760179 9.12676 1.01851C9.55176 1.27685 9.92259 1.59768 10.2393 1.98101L10.7393 2.63101L11.2393 1.98101C11.5393 1.58101 11.9059 1.25601 12.3393 1.00601C12.7726 0.756012 13.2393 0.631012 13.7393 0.631012C14.5726 0.631012 15.2809 0.922679 15.8643 1.50601C16.4476 2.08935 16.7393 2.79768 16.7393 3.63101C16.7393 3.81435 16.7268 3.98935 16.7018 4.15601C16.6768 4.32268 16.6226 4.48101 16.5393 4.63101H18.7393C19.2893 4.63101 19.7601 4.82685 20.1518 5.21851C20.5434 5.61018 20.7393 6.08101 20.7393 6.63101V17.631C20.7393 18.181 20.5434 18.6518 20.1518 19.0435C19.7601 19.4352 19.2893 19.631 18.7393 19.631H2.73926C2.18926 19.631 1.71842 19.4352 1.32676 19.0435C0.935091 18.6518 0.739258 18.181 0.739258 17.631V6.63101C0.739258 6.08101 0.935091 5.61018 1.32676 5.21851C1.71842 4.82685 2.18926 4.63101 2.73926 4.63101ZM2.73926 12.631H18.7393V6.63101H13.6393L15.7393 9.48101L14.1393 10.631L10.7393 6.03101L7.33926 10.631L5.73926 9.48101L7.78926 6.63101H2.73926V12.631ZM7.73926 4.63101C8.02259 4.63101 8.26009 4.53518 8.45176 4.34351C8.64342 4.15185 8.73926 3.91435 8.73926 3.63101C8.73926 3.34768 8.64342 3.11018 8.45176 2.91851C8.26009 2.72685 8.02259 2.63101 7.73926 2.63101C7.45592 2.63101 7.21842 2.72685 7.02676 2.91851C6.83509 3.11018 6.73926 3.34768 6.73926 3.63101C6.73926 3.91435 6.83509 4.15185 7.02676 4.34351C7.21842 4.53518 7.45592 4.63101 7.73926 4.63101ZM13.7393 4.63101C14.0226 4.63101 14.2601 4.53518 14.4518 4.34351C14.6434 4.15185 14.7393 3.91435 14.7393 3.63101C14.7393 3.34768 14.6434 3.11018 14.4518 2.91851C14.2601 2.72685 14.0226 2.63101 13.7393 2.63101C13.4559 2.63101 13.2184 2.72685 13.0268 2.91851C12.8351 3.11018 12.7393 3.34768 12.7393 3.63101C12.7393 3.91435 12.8351 4.15185 13.0268 4.34351C13.2184 4.53518 13.4559 4.63101 13.7393 4.63101Z" fill="#FFFFFE"/>
</svg>
