<svg width="21" height="19" viewBox="0 0 21 19" fill="none" xmlns="http://www.w3.org/2000/svg">
<path d="M9.73926 18.631V16.631H17.7393V9.53098C17.7393 7.58098 17.0601 5.92682 15.7018 4.56848C14.3434 3.21015 12.6893 2.53098 10.7393 2.53098C8.78926 2.53098 7.13509 3.21015 5.77676 4.56848C4.41842 5.92682 3.73926 7.58098 3.73926 9.53098V15.631H2.73926C2.18926 15.631 1.71842 15.4351 1.32676 15.0435C0.935091 14.6518 0.739258 14.181 0.739258 13.631V11.631C0.739258 11.281 0.826758 10.9518 1.00176 10.6435C1.17676 10.3351 1.42259 10.0893 1.73926 9.90598L1.81426 8.58098C1.94759 7.44765 2.27676 6.39765 2.80176 5.43098C3.32676 4.46431 3.98509 3.62265 4.77676 2.90598C5.56842 2.18931 6.47676 1.63098 7.50176 1.23098C8.52676 0.830981 9.60592 0.630981 10.7393 0.630981C11.8726 0.630981 12.9476 0.830981 13.9643 1.23098C14.9809 1.63098 15.8893 2.18515 16.6893 2.89348C17.4893 3.60181 18.1476 4.43931 18.6643 5.40598C19.1809 6.37265 19.5143 7.42265 19.6643 8.55598L19.7393 9.85598C20.0559 10.006 20.3018 10.231 20.4768 10.531C20.6518 10.831 20.7393 11.1476 20.7393 11.481V13.781C20.7393 14.1143 20.6518 14.431 20.4768 14.731C20.3018 15.031 20.0559 15.256 19.7393 15.406V16.631C19.7393 17.181 19.5434 17.6518 19.1518 18.0435C18.7601 18.4351 18.2893 18.631 17.7393 18.631H9.73926ZM7.73926 11.631C7.45592 11.631 7.21842 11.5351 7.02676 11.3435C6.83509 11.1518 6.73926 10.9143 6.73926 10.631C6.73926 10.3476 6.83509 10.1101 7.02676 9.91848C7.21842 9.72682 7.45592 9.63098 7.73926 9.63098C8.02259 9.63098 8.26009 9.72682 8.45176 9.91848C8.64342 10.1101 8.73926 10.3476 8.73926 10.631C8.73926 10.9143 8.64342 11.1518 8.45176 11.3435C8.26009 11.5351 8.02259 11.631 7.73926 11.631ZM13.7393 11.631C13.4559 11.631 13.2184 11.5351 13.0268 11.3435C12.8351 11.1518 12.7393 10.9143 12.7393 10.631C12.7393 10.3476 12.8351 10.1101 13.0268 9.91848C13.2184 9.72682 13.4559 9.63098 13.7393 9.63098C14.0226 9.63098 14.2601 9.72682 14.4518 9.91848C14.6434 10.1101 14.7393 10.3476 14.7393 10.631C14.7393 10.9143 14.6434 11.1518 14.4518 11.3435C14.2601 11.5351 14.0226 11.631 13.7393 11.631ZM4.76426 10.081C4.64759 8.31431 5.18092 6.79765 6.36426 5.53098C7.54759 4.26431 9.02259 3.63098 10.7893 3.63098C12.2726 3.63098 13.5768 4.10181 14.7018 5.04348C15.8268 5.98515 16.5059 7.18931 16.7393 8.65598C15.2226 8.63931 13.8268 8.23098 12.5518 7.43098C11.2768 6.63098 10.2976 5.54765 9.61426 4.18098C9.34759 5.51431 8.78509 6.70181 7.92676 7.74348C7.06842 8.78515 6.01426 9.56431 4.76426 10.081Z" fill="#FFFFFE"/>
</svg>
