<svg width="21" height="21" viewBox="0 0 21 21" fill="none" xmlns="http://www.w3.org/2000/svg">
<path d="M11.0001 8.59277L9.60006 7.19277L11.1751 5.59277H7.00006V3.59277H11.1751L9.57506 1.99277L11.0001 0.592773L15.0001 4.59277L11.0001 8.59277ZM6.00006 20.5928C5.45006 20.5928 4.97923 20.3969 4.58756 20.0053C4.19589 19.6136 4.00006 19.1428 4.00006 18.5928C4.00006 18.0428 4.19589 17.5719 4.58756 17.1803C4.97923 16.7886 5.45006 16.5928 6.00006 16.5928C6.55006 16.5928 7.02089 16.7886 7.41256 17.1803C7.80423 17.5719 8.00006 18.0428 8.00006 18.5928C8.00006 19.1428 7.80423 19.6136 7.41256 20.0053C7.02089 20.3969 6.55006 20.5928 6.00006 20.5928ZM16.0001 20.5928C15.4501 20.5928 14.9792 20.3969 14.5876 20.0053C14.1959 19.6136 14.0001 19.1428 14.0001 18.5928C14.0001 18.0428 14.1959 17.5719 14.5876 17.1803C14.9792 16.7886 15.4501 16.5928 16.0001 16.5928C16.5501 16.5928 17.0209 16.7886 17.4126 17.1803C17.8042 17.5719 18.0001 18.0428 18.0001 18.5928C18.0001 19.1428 17.8042 19.6136 17.4126 20.0053C17.0209 20.3969 16.5501 20.5928 16.0001 20.5928ZM6.10352e-05 2.59277V0.592773H3.27506L7.52506 9.59277H14.5251L18.4251 2.59277H20.7001L16.3001 10.5428C16.1167 10.8761 15.8709 11.1344 15.5626 11.3178C15.2542 11.5011 14.9167 11.5928 14.5501 11.5928H7.10006L6.00006 13.5928H18.0001V15.5928H6.00006C5.25006 15.5928 4.67923 15.2678 4.28756 14.6178C3.89589 13.9678 3.88339 13.3094 4.25006 12.6428L5.60006 10.1928L2.00006 2.59277H6.10352e-05Z" fill="#272343"/>
</svg>
