<svg width="21" height="21" viewBox="0 0 21 21" fill="none" xmlns="http://www.w3.org/2000/svg">
<path d="M14.0393 15.331L15.4393 13.931L11.7393 10.231V5.63101H9.73926V11.031L14.0393 15.331ZM10.7393 20.631C9.35592 20.631 8.05592 20.3685 6.83926 19.8435C5.62259 19.3185 4.56426 18.606 3.66426 17.706C2.76426 16.806 2.05176 15.7477 1.52676 14.531C1.00176 13.3143 0.739258 12.0143 0.739258 10.631C0.739258 9.24768 1.00176 7.94768 1.52676 6.73101C2.05176 5.51435 2.76426 4.45601 3.66426 3.55601C4.56426 2.65601 5.62259 1.94351 6.83926 1.41851C8.05592 0.893512 9.35592 0.631012 10.7393 0.631012C12.1226 0.631012 13.4226 0.893512 14.6393 1.41851C15.8559 1.94351 16.9143 2.65601 17.8143 3.55601C18.7143 4.45601 19.4268 5.51435 19.9518 6.73101C20.4768 7.94768 20.7393 9.24768 20.7393 10.631C20.7393 12.0143 20.4768 13.3143 19.9518 14.531C19.4268 15.7477 18.7143 16.806 17.8143 17.706C16.9143 18.606 15.8559 19.3185 14.6393 19.8435C13.4226 20.3685 12.1226 20.631 10.7393 20.631ZM10.7393 18.631C12.9559 18.631 14.8434 17.8518 16.4018 16.2935C17.9601 14.7352 18.7393 12.8477 18.7393 10.631C18.7393 8.41435 17.9601 6.52685 16.4018 4.96851C14.8434 3.41018 12.9559 2.63101 10.7393 2.63101C8.52259 2.63101 6.63509 3.41018 5.07676 4.96851C3.51842 6.52685 2.73926 8.41435 2.73926 10.631C2.73926 12.8477 3.51842 14.7352 5.07676 16.2935C6.63509 17.8518 8.52259 18.631 10.7393 18.631Z" fill="#FFFFFE"/>
</svg>
